<svg xmlns="http://www.w3.org/2000/svg" viewBox="131.51 140.82 311.98 312.91"><rect height="100%" width="100%" x="131.51" y="140.82" fill="rgba(103, 49, 161, 1)"/> <svg xmlns="http://www.w3.org/2000/svg" xmlns:xlink="http://www.w3.org/1999/xlink" version="1.1" id="Layer_1" x="201" y="210" viewBox="64.01152038574219 206.10000610351562 645.7884521484375 426.1000061035156" xml:space="preserve" height="113" width="171" preserveAspectRatio="xMinYMin" enable-background="new 0 0 775.1 772.1" style="overflow: visible;"><path d="M461.7,341.1h94.5c-3.9-14.8-8.9-28.4-15.2-40.9H344.2v-49h159.3c-33.5-29.5-80.3-45.1-139.5-45.1H257.4v251.4H384v49H257.4  v40.9h116.4v49H257.4v35.8h109c128.6,0,198.9-79.2,198.9-214.6c0-9.5-0.4-18.6-1-27.5H461.7V341.1z" style=""></path><rect x="133.8" y="547.4" class="st2" width="123.6" height="49" style="fill: #74A5FF;"></rect><rect x="257.4" y="547.4" class="st0" width="116.4" height="49" style="fill: #284389; fill-opacity: 1;"></rect><rect x="199.1" y="457.5" class="st3" width="58.2" height="49" style="fill: #FF54FF;"></rect><rect x="257.4" y="457.5" class="st0" width="164.4" height="49" style="fill: #284389; fill-opacity: 1;"></rect><ellipse transform="matrix(0.9239 -0.3827 0.3827 0.9239 -172.2647 98.0531)" class="st3" cx="160.3" cy="482" rx="24.5" ry="24.5" style="fill: #FF54FF;"></ellipse><ellipse transform="matrix(0.9239 -0.3827 0.3827 0.9239 -212.7237 80.5214)" class="st2" cx="96" cy="575" rx="24.5" ry="24.5" style="fill: #74A5FF;"></ellipse><path class="st2" d="M541,300.3h43.3v-49h-80.7C518.8,264.7,531.3,281.1,541,300.3z" style="fill: #74A5FF;"></path><path class="st0" d="M344.2,300.3H541c-9.7-19.2-22.2-35.5-37.5-49H344.2V300.3z" style="fill: #284389; fill-opacity: 1;"></path><path class="st3" d="M564.2,390.1h82.3v-49h-90.3C560.2,356.3,562.8,372.6,564.2,390.1z" style="fill: #FF54FF;"></path><path class="st0" d="M461.7,341.1v49h102.5c-1.3-17.5-4-33.9-8-49H461.7z" style="fill: #284389; fill-opacity: 1;"></path><circle class="st3" cx="685.3" cy="365.6" r="24.5" style="fill: #FF54FF;"></circle><path class="st2" d="M622,297.2c13.5,0,24.5-11,24.5-24.5c0-13.5-11-24.5-24.5-24.5c-13.5,0-24.5,11-24.5,24.5  C597.4,286.2,608.4,297.2,622,297.2z" style="fill: #74A5FF;"></path></svg> <svg y="358" viewBox="1.850000023841858 4.590000152587891 154.1899871826172 24.81999969482422" x="210" height="24" width="154" style="overflow: visible;"><g fill="#FF54FF" fill-opacity="1" style=""><path d="M8.21 29.23L1.85 29.23L1.85 4.59L8.21 4.59Q10.69 4.59 12.91 5.53Q15.13 6.47 16.84 8.18L16.84 8.18Q18.50 9.92 19.44 12.15Q20.39 14.39 20.39 16.91L20.39 16.91Q20.39 19.42 19.44 21.66Q18.50 23.90 16.84 25.60L16.84 25.60Q15.13 27.34 12.91 28.29Q10.69 29.23 8.21 29.23L8.21 29.23ZM8.21 7.92L5.18 7.92L5.18 25.90L8.21 25.90Q9.99 25.90 11.64 25.20Q13.28 24.49 14.50 23.27L14.50 23.27Q15.72 22.01 16.41 20.37Q17.09 18.72 17.09 16.91L17.09 16.91Q17.09 15.10 16.41 13.45Q15.72 11.80 14.50 10.54L14.50 10.54Q13.28 9.32 11.64 8.62Q9.99 7.92 8.21 7.92L8.21 7.92ZM56.14 29.23L52.63 29.23L49.59 20.57L41.90 20.57L38.86 29.23L35.35 29.23L43.89 4.66L47.59 4.66L56.14 29.23ZM48.52 17.46L45.74 9.43L42.93 17.46L48.52 17.46ZM97.78 4.59L89.12 29.23L85.83 29.23L82.02 18.76L78.35 29.23L75.02 29.23L66.11 4.59L69.69 4.59L76.65 23.86L80.20 13.76L76.87 4.59L80.46 4.59L83.72 13.62L87.45 23.86L94.19 4.59L97.78 4.59ZM116.03 29.23L112.92 29.23L112.92 4.62L116.03 4.62L116.03 29.23ZM143.68 29.41Q141.17 29.41 138.93 28.47Q136.69 27.53 134.99 25.79L134.99 25.79Q133.28 24.09 132.32 21.81Q131.36 19.54 131.36 17.02L131.36 17.02Q131.36 14.50 132.30 12.27Q133.25 10.03 134.99 8.29L134.99 8.29Q136.69 6.59 138.93 5.62Q141.17 4.66 143.68 4.66L143.68 4.66Q146.20 4.66 148.45 5.62Q150.71 6.59 152.41 8.29L152.41 8.29Q154.12 9.99 155.08 12.25Q156.04 14.50 156.04 17.02L156.04 17.02Q156.04 19.54 155.08 21.81Q154.12 24.09 152.41 25.79L152.41 25.79Q150.71 27.49 148.45 28.45Q146.20 29.41 143.68 29.41L143.68 29.41ZM143.68 8.03Q141.87 8.03 140.22 8.71Q138.58 9.40 137.32 10.66L137.32 10.66Q136.06 11.91 135.38 13.56Q134.69 15.21 134.69 17.02L134.69 17.02Q134.69 18.87 135.39 20.55Q136.10 22.24 137.32 23.46L137.32 23.46Q138.58 24.72 140.22 25.40Q141.87 26.08 143.68 26.08L143.68 26.08Q145.50 26.08 147.14 25.40Q148.79 24.72 150.05 23.46L150.05 23.46Q151.27 22.24 151.97 20.55Q152.67 18.87 152.67 17.02L152.67 17.02Q152.67 15.21 151.99 13.56Q151.30 11.91 150.05 10.66L150.05 10.66Q148.79 9.40 147.14 8.71Q145.50 8.03 143.68 8.03L143.68 8.03Z" transform="translate(0, 0)"></path></g></svg></svg>