<svg xmlns="http://www.w3.org/2000/svg" xmlns:xlink="http://www.w3.org/1999/xlink" version="1.1" id="Layer_1" x="201" y="210" viewBox="64.01152038574219 206.10000610351562 645.7884521484375 426.1000061035156" xml:space="preserve" height="113" width="171" preserveAspectRatio="xMinYMin" enable-background="new 0 0 775.1 772.1" style="overflow: visible;"><path d="M461.7,341.1h94.5c-3.9-14.8-8.9-28.4-15.2-40.9H344.2v-49h159.3c-33.5-29.5-80.3-45.1-139.5-45.1H257.4v251.4H384v49H257.4  v40.9h116.4v49H257.4v35.8h109c128.6,0,198.9-79.2,198.9-214.6c0-9.5-0.4-18.6-1-27.5H461.7V341.1z" style=""/><rect x="133.8" y="547.4" class="st2" width="123.6" height="49" style="fill: #74A5FF;"/><rect x="257.4" y="547.4" class="st0" width="116.4" height="49" style="fill: #284389; fill-opacity: 1;"/><rect x="199.1" y="457.5" class="st3" width="58.2" height="49" style="fill: #FF54FF;"/><rect x="257.4" y="457.5" class="st0" width="164.4" height="49" style="fill: #284389; fill-opacity: 1;"/><ellipse transform="matrix(0.9239 -0.3827 0.3827 0.9239 -172.2647 98.0531)" class="st3" cx="160.3" cy="482" rx="24.5" ry="24.5" style="fill: #FF54FF;"/><ellipse transform="matrix(0.9239 -0.3827 0.3827 0.9239 -212.7237 80.5214)" class="st2" cx="96" cy="575" rx="24.5" ry="24.5" style="fill: #74A5FF;"/><path class="st2" d="M541,300.3h43.3v-49h-80.7C518.8,264.7,531.3,281.1,541,300.3z" style="fill: #74A5FF;"/><path class="st0" d="M344.2,300.3H541c-9.7-19.2-22.2-35.5-37.5-49H344.2V300.3z" style="fill: #284389; fill-opacity: 1;"/><path class="st3" d="M564.2,390.1h82.3v-49h-90.3C560.2,356.3,562.8,372.6,564.2,390.1z" style="fill: #FF54FF;"/><path class="st0" d="M461.7,341.1v49h102.5c-1.3-17.5-4-33.9-8-49H461.7z" style="fill: #284389; fill-opacity: 1;"/><circle class="st3" cx="685.3" cy="365.6" r="24.5" style="fill: #FF54FF;"/><path class="st2" d="M622,297.2c13.5,0,24.5-11,24.5-24.5c0-13.5-11-24.5-24.5-24.5c-13.5,0-24.5,11-24.5,24.5  C597.4,286.2,608.4,297.2,622,297.2z" style="fill: #74A5FF;"/></svg>